<svg width="125" height="56" viewBox="0 0 125 56" fill="none" xmlns="http://www.w3.org/2000/svg">
<path fill-rule="evenodd" clip-rule="evenodd" d="M18.6096 25.8481C18.2894 25.8369 17.9704 25.8925 17.673 26.0115C17.3755 26.1304 17.1061 26.3101 16.882 26.5389C16.6557 26.7691 16.4782 27.0426 16.3602 27.343C16.2422 27.6434 16.1861 27.9645 16.1952 28.2871V36.1856C15.9474 35.9524 15.6857 35.7344 15.4115 35.5327C14.6404 34.9657 13.7881 34.5183 12.8834 34.2057C11.8688 33.8551 10.8009 33.684 9.7275 33.7002C7.9885 33.6846 6.28315 34.1797 4.82299 35.1241C3.32847 36.1013 2.11673 37.4537 1.30893 39.0459C0.408677 40.8462 -0.039628 42.8385 0.00274786 44.8508C-0.0368393 46.8506 0.411481 48.83 1.30893 50.6177C2.11963 52.2246 3.348 53.5836 4.86513 54.5522C6.36556 55.5046 8.11043 56.0008 9.88762 55.9803C10.8543 55.9891 11.8142 55.8191 12.7191 55.479C13.5287 55.1763 14.2929 54.7638 14.9902 54.2531C15.4273 53.9322 15.8323 53.5696 16.1994 53.1705C16.1954 53.4858 16.2536 53.7988 16.3707 54.0915C16.4878 54.3843 16.6616 54.6511 16.882 54.8766C17.344 55.3274 17.964 55.5797 18.6096 55.5797C19.2551 55.5797 19.8751 55.3274 20.3371 54.8766C20.5619 54.6455 20.7381 54.3718 20.8553 54.0715C20.9725 53.7713 21.0284 53.4506 21.0197 53.1284V28.2998C21.0313 27.9753 20.9768 27.6519 20.8595 27.3492C20.7421 27.0465 20.5644 26.7708 20.3371 26.5389C20.1109 26.3135 19.841 26.1366 19.5439 26.0192C19.2468 25.9019 18.9288 25.8465 18.6096 25.8565V25.8481ZM15.6601 48.2756C15.1997 49.2501 14.485 50.0825 13.5913 50.6851C12.6716 51.2851 11.5922 51.5934 10.4944 51.5698C9.4102 51.5894 8.34542 51.281 7.43957 50.6851C6.54472 50.0837 5.82974 49.251 5.37075 48.2756C4.86792 47.2049 4.61713 46.0334 4.6376 44.8508C4.61838 43.6579 4.87203 42.4764 5.37917 41.3965C5.83816 40.4211 6.55315 39.5883 7.448 38.9869C8.35384 38.3911 9.41863 38.0827 10.5028 38.1023C11.6006 38.0787 12.6801 38.387 13.5997 38.9869C14.4934 39.5896 15.2081 40.422 15.6685 41.3965C16.1757 42.4764 16.4293 43.6579 16.4101 44.8508C16.4267 46.0312 16.173 47.1998 15.6685 48.2671L15.6601 48.2756ZM44.2445 33.7002C43.9234 33.6912 43.6041 33.749 43.3066 33.8702C43.0092 33.9913 42.7403 34.173 42.5169 34.4037C42.2918 34.6345 42.1153 34.9082 41.9981 35.2085C41.8808 35.5088 41.8251 35.8297 41.8343 36.1519V36.2025C41.5847 35.9713 41.3231 35.7533 41.0506 35.5495C40.279 34.9834 39.4268 34.5361 38.5225 34.2226C37.5088 33.8669 36.4409 33.6902 35.3666 33.7002C33.6276 33.6841 31.9221 34.1792 30.4621 35.1241C28.9732 36.1017 27.7684 37.4544 26.9691 39.0459C26.0689 40.8462 25.6206 42.8385 25.6629 44.8508C25.6234 46.8506 26.0717 48.83 26.9691 50.6177C27.7772 52.2263 29.0062 53.586 30.5253 54.5522C32.0257 55.5046 33.7706 56.0008 35.5478 55.9803C36.5031 55.9842 37.4511 55.8143 38.3456 55.479C39.1548 55.1754 39.9188 54.763 40.6166 54.2531C41.0525 53.9322 41.4561 53.5696 41.8217 53.1705C41.8154 53.8069 42.0607 54.4201 42.5043 54.8766C42.9663 55.3274 43.5863 55.5797 44.2318 55.5797C44.8774 55.5797 45.4974 55.3274 45.9594 54.8766C46.1841 54.6455 46.3603 54.3718 46.4776 54.0715C46.5948 53.7713 46.6507 53.4506 46.6419 53.1284V36.1351C46.6548 35.8092 46.6008 35.4842 46.4835 35.1799C46.3661 34.8757 46.1877 34.5986 45.9594 34.3658C45.7332 34.1449 45.4647 33.9721 45.17 33.8577C44.8753 33.7433 44.5604 33.6897 44.2445 33.7002ZM41.295 48.284C40.836 49.2594 40.121 50.0922 39.2262 50.6935C38.3078 51.2929 37.2299 51.6012 36.1335 51.5782C35.0493 51.5983 33.9843 51.2899 33.0787 50.6935C32.1828 50.0933 31.4676 49.2602 31.0099 48.284C30.5021 47.2176 30.2469 46.0486 30.2641 44.8676C30.2442 43.6742 30.4994 42.4923 31.0099 41.4134C31.4676 40.4371 32.1828 39.6041 33.0787 39.0038C33.9843 38.4074 35.0493 38.099 36.1335 38.1192C37.2299 38.0961 38.3078 38.4044 39.2262 39.0038C40.1187 39.6006 40.8335 40.4272 41.295 41.3965C41.8055 42.4754 42.0607 43.6574 42.0408 44.8508C42.058 46.0317 41.8028 47.2007 41.295 48.2671V48.284ZM88.9286 50.3945C89.3167 50.1259 89.7851 49.998 90.2559 50.0322V50.049C90.5564 50.0313 90.857 50.0819 91.1351 50.1972C91.4132 50.3125 91.6615 50.4894 91.8612 50.7146C92.2418 51.1694 92.4427 51.7479 92.4258 52.3406C92.4258 52.9978 92.0508 53.6072 91.3008 54.1689C90.4046 54.7833 89.4057 55.2327 88.3514 55.4958C87.0608 55.8384 85.7302 56.007 84.3949 55.9971C82.4566 56.0464 80.545 55.5375 78.8878 54.5312C77.3401 53.5588 76.094 52.1745 75.2895 50.5335C74.4298 48.77 73.9968 46.8292 74.0255 44.8676C73.9823 42.8504 74.4459 40.8546 75.3738 39.0628C76.2317 37.4299 77.5254 36.0666 79.1112 35.1241C80.7729 34.1588 82.6671 33.6664 84.5887 33.7002C85.9364 33.6723 87.2817 33.8282 88.5873 34.1636C89.564 34.403 90.4723 34.8643 91.2418 35.5116C91.5394 35.7676 91.7779 36.0851 91.9409 36.4422C92.1038 36.7993 92.1873 37.1875 92.1856 37.58C92.1844 38.1207 92.0151 38.6477 91.7011 39.088C91.5479 39.3165 91.3381 39.5013 91.0922 39.6246C90.8464 39.7479 90.5727 39.8054 90.298 39.7915C89.9342 39.8018 89.572 39.7403 89.232 39.6104C88.9613 39.4948 88.7098 39.3385 88.4862 39.147C88.2525 38.9447 87.9966 38.7695 87.7235 38.6247C87.3402 38.4267 86.9253 38.297 86.4974 38.2413C86.0928 38.1639 85.6829 38.1175 85.2713 38.1023C84.0524 38.0641 82.8474 38.3707 81.7952 38.9869C80.8576 39.5635 80.1001 40.3909 79.6083 41.3755C79.0806 42.4567 78.8177 43.6479 78.8415 44.8508C78.8221 46.043 79.091 47.2222 79.6252 48.2882C80.1232 49.2631 80.8722 50.0876 81.7952 50.6767C82.7529 51.2752 83.864 51.5825 84.9932 51.5613C85.5714 51.5671 86.1491 51.5263 86.7207 51.4392C87.1385 51.3802 87.5448 51.258 87.9258 51.0769C88.2799 50.88 88.6155 50.6516 88.9286 50.3945ZM100.023 27.1329C99.6493 26.8521 98.992 26.7117 98.051 26.7117C97.3875 26.6669 96.7252 26.8131 96.1422 27.1329C95.7209 27.4151 95.5186 27.9459 95.5186 28.721V29.4835C95.5186 30.2375 95.7083 30.7473 96.0833 31.0506C96.4583 31.3539 97.1029 31.4718 98.013 31.4718C98.696 31.5267 99.3801 31.3802 99.9807 31.0506C100.381 30.7683 100.583 30.2418 100.583 29.4624V28.7C100.583 27.9501 100.398 27.4362 100.023 27.1329ZM97.1131 34.2535C97.4105 34.1324 97.7299 34.0745 98.0509 34.0836H98.0594C98.3804 34.074 98.7 34.1316 98.9975 34.2528C99.295 34.3739 99.5639 34.5559 99.7869 34.7871C100.012 35.0178 100.189 35.2914 100.307 35.5916C100.425 35.8919 100.482 36.2128 100.474 36.5353V53.1284C100.481 53.4508 100.425 53.7716 100.307 54.0717C100.189 54.372 100.012 54.6456 99.7869 54.8766C99.3249 55.3274 98.7049 55.5797 98.0594 55.5797C97.4138 55.5797 96.7938 55.3274 96.3318 54.8766C96.1073 54.6454 95.9312 54.3716 95.814 54.0714C95.6967 53.7712 95.6407 53.4506 95.6492 53.1284V36.5353C95.6394 36.2136 95.694 35.8933 95.8097 35.5931C95.9255 35.2929 96.1002 35.0188 96.3234 34.7871C96.5467 34.5563 96.8157 34.3746 97.1131 34.2535ZM123.547 38.2413C123.213 36.9411 122.476 35.7803 121.44 34.9261C120.406 34.0836 118.899 33.6623 116.919 33.6623C116.058 33.6539 115.202 33.7964 114.391 34.0836C113.639 34.3475 112.929 34.7192 112.284 35.1872C111.697 35.6162 111.159 36.1077 110.679 36.6532C110.514 36.8428 110.371 37.0197 110.257 37.2008V36.5353C110.263 36.2116 110.204 35.89 110.083 35.5897C109.962 35.2893 109.782 35.0164 109.554 34.7871C109.092 34.3363 108.472 34.0839 107.826 34.0839C107.181 34.0839 106.561 34.3363 106.099 34.7871C105.872 35.0172 105.695 35.2907 105.577 35.5911C105.459 35.8915 105.403 36.2126 105.412 36.5353V46.5611C105.403 46.8837 105.459 47.2049 105.577 47.5054C105.695 47.8058 105.872 48.0792 106.099 48.3093C106.561 48.7601 107.181 49.0124 107.826 49.0124C108.472 49.0124 109.092 48.7601 109.554 48.3093C109.779 48.0785 109.955 47.8048 110.073 47.5045C110.19 47.2041 110.246 46.8833 110.236 46.5611V44.5728C110.236 43.6881 110.43 41.1606 110.818 40.4529C111.212 39.7419 111.795 39.1542 112.503 38.7553C113.334 38.3054 114.269 38.0845 115.213 38.115C116.101 38.0603 116.985 38.2841 117.741 38.7553C118.32 39.1699 118.751 39.761 118.967 40.4403C119.204 41.2139 119.319 42.0197 119.308 42.8288V53.1157C119.3 53.4379 119.356 53.7585 119.473 54.0588C119.59 54.359 119.766 54.6327 119.991 54.8639C120.453 55.315 121.074 55.5675 121.72 55.5675C122.367 55.5675 122.987 55.315 123.45 54.8639C123.674 54.6327 123.851 54.359 123.968 54.0588C124.085 53.7585 124.141 53.4379 124.132 53.1157V42.8414C124.148 41.2885 123.951 39.7408 123.547 38.2413ZM62.4763 33.6665C64.4594 33.6665 65.9665 34.0878 66.9974 34.9303C68.032 35.7836 68.7695 36.9428 69.1041 38.2413C69.5127 39.7402 69.714 41.2879 69.7024 42.8414V53.1158C69.7112 53.4379 69.6553 53.7586 69.538 54.0589C69.4208 54.3591 69.2446 54.6329 69.0198 54.8639C68.5578 55.3148 67.9379 55.5671 67.2923 55.5671C66.6467 55.5671 66.0268 55.3148 65.5648 54.8639C65.3385 54.6338 65.161 54.3603 65.043 54.0599C64.9249 53.7595 64.8688 53.4384 64.878 53.1158V42.8288C64.889 42.0197 64.7738 41.2139 64.5367 40.4403C64.3241 39.757 63.8953 39.1612 63.3148 38.7426C62.5595 38.2707 61.6755 38.0468 60.7867 38.1023C59.8414 38.0719 58.905 38.2928 58.0732 38.7426C57.3633 39.145 56.7797 39.7373 56.3878 40.4529C56.0001 41.1606 55.8063 43.6881 55.8063 44.5728V46.5611C55.8155 46.8833 55.7598 47.2041 55.6426 47.5045C55.5253 47.8048 55.3489 48.0785 55.1237 48.3093C54.6617 48.7601 54.0417 49.0124 53.3962 49.0124C52.7506 49.0124 52.1306 48.7601 51.6686 48.3093C51.4435 48.0785 51.267 47.8048 51.1498 47.5045C51.0325 47.2041 50.9768 46.8833 50.986 46.5611V36.5353C50.9751 36.2142 51.0283 35.8943 51.1426 35.5941C51.257 35.2939 51.43 35.0195 51.6518 34.7871C52.1138 34.3363 52.7338 34.0839 53.3793 34.0839C54.0249 34.0839 54.6449 34.3363 55.1069 34.7871C55.3316 35.0181 55.5078 35.2919 55.625 35.5921C55.7423 35.8924 55.7982 36.2131 55.7894 36.5353V37.2051C55.9243 37.0281 56.0675 36.847 56.2319 36.6574C56.7126 36.1109 57.2525 35.6193 57.8414 35.1915C58.4862 34.7231 59.196 34.3513 59.9482 34.0878C60.7598 33.801 61.6154 33.6584 62.4763 33.6665Z" fill="#814B88"/>
<path d="M89.0002 6.71442C88.4765 5.47511 87.7311 4.34165 86.8007 3.36967C85.8939 2.41693 84.8144 1.645 83.6195 1.09491C82.4245 0.536913 81.121 0.249248 79.8021 0.252405C78.0627 0.250399 76.3546 0.714424 74.8554 1.5962C73.2692 2.51869 71.9596 3.84979 71.0633 5.45066C70.0568 7.31198 69.5598 9.40595 69.6223 11.5209V11.5546C69.5419 13.0957 68.9144 14.5575 67.8525 15.6774C66.7906 16.7973 65.364 17.5018 63.8291 17.6643C62.2942 17.8267 60.7516 17.4365 59.4787 16.5636C58.2058 15.6908 57.2861 14.3927 56.8849 12.9026C56.8158 12.5666 56.7721 12.2258 56.7542 11.8832V11.0407V7.84337C56.7634 7.52112 56.7078 7.20029 56.5905 6.89998C56.4732 6.59966 56.2968 6.32597 56.0717 6.09518C55.8601 5.87594 55.6069 5.70115 55.3269 5.58107C55.0469 5.46099 54.7457 5.39803 54.441 5.3959H54.3568C54.0357 5.38684 53.7163 5.44472 53.4189 5.56583C53.1215 5.68695 52.8526 5.86866 52.6292 6.09939C52.4041 6.33018 52.2276 6.60387 52.1104 6.90419C51.9931 7.20451 51.9374 7.52533 51.9466 7.84759V11.8326C51.9178 12.4734 51.7751 13.1038 51.5253 13.6946V13.7325C51.0366 14.8762 50.2292 15.8552 49.1994 16.5528C48.1695 17.2503 46.9608 17.6371 45.7172 17.6668C44.4736 17.6966 43.2477 17.3681 42.1857 16.7205C41.1236 16.073 40.2703 15.1337 39.7275 14.0147C39.3689 13.0323 39.1739 11.9977 39.1502 10.9522V2.45134C39.159 2.12914 39.1031 1.80846 38.9858 1.50821C38.8686 1.20796 38.6924 0.934218 38.4676 0.703146C38.0057 0.252345 37.3857 0 36.7401 0C36.0945 0 35.4746 0.252345 35.0126 0.703146C34.7878 0.934218 34.6116 1.20796 34.4944 1.50821C34.3772 1.80846 34.3213 2.12914 34.33 2.45134V10.8174C34.33 10.9059 34.33 10.9943 34.33 11.0786C34.33 11.0786 34.33 11.2008 34.33 11.3945C34.33 11.424 34.33 11.4493 34.33 11.4746C34.33 11.4998 34.33 11.6473 34.33 11.7484C34.4287 13.0146 34.7407 14.2551 35.2527 15.4175C36.0897 17.4633 37.5176 19.2133 39.3541 20.4439C41.1906 21.6744 43.3523 22.3297 45.5632 22.326H45.8202C47.4778 22.284 49.105 21.8714 50.5822 21.1184C52.0594 20.3654 53.3492 19.2911 54.3568 17.9745C55.3765 19.3014 56.6833 20.3804 58.1794 21.1307C59.6754 21.881 61.3218 22.2831 62.9954 22.307C64.6689 22.3309 66.3262 21.976 67.843 21.2687C69.3599 20.5614 70.697 19.5202 71.7543 18.223C72.5663 19.2813 73.5857 20.1628 74.7501 20.8137C76.2306 21.5878 77.8527 22.0537 79.5184 22.1833C81.184 22.3129 82.8587 22.1035 84.4411 21.5678C85.4874 21.2346 86.4661 20.7183 87.3316 20.0428C87.6548 19.8291 87.9231 19.5423 88.1149 19.2057C88.3067 18.8691 88.4165 18.492 88.4355 18.1051C88.4345 17.8427 88.3813 17.5832 88.2793 17.3415C88.1772 17.0998 88.0282 16.8808 87.8409 16.697C87.6536 16.5133 87.4317 16.3685 87.1881 16.2711C86.9444 16.1737 86.6839 16.1255 86.4215 16.1294C85.9507 16.1413 85.4891 16.2624 85.0732 16.4833C84.7824 16.6433 84.4622 16.8329 84.1041 17.0562C83.6672 17.3153 83.1944 17.5084 82.701 17.6291C81.9365 17.8093 81.1519 17.89 80.3667 17.8692C79.3216 17.8695 78.2937 17.6043 77.3793 17.0983C76.4261 16.5655 75.6342 15.7854 75.0872 14.8404C74.7299 14.237 74.4817 13.5753 74.354 12.8858H87.4159C88.0313 12.8995 88.6305 12.6883 89.1013 12.2918C89.331 12.1049 89.5171 11.87 89.6466 11.6037C89.7762 11.3374 89.846 11.0461 89.8513 10.75C89.8591 9.36379 89.5838 7.99057 89.0423 6.71442H89.0002ZM84.7867 8.93021H74.4214C74.4794 8.62149 74.5596 8.31739 74.6616 8.0203C74.895 7.26527 75.3003 6.57461 75.8456 6.0025C76.343 5.50512 76.955 5.13767 77.6279 4.93252C78.3468 4.71713 79.0938 4.61064 79.8442 4.61658C80.6462 4.61446 81.4378 4.79755 82.1574 5.15157C82.8629 5.49371 83.4844 5.98703 83.9777 6.59647C84.4553 7.1805 84.7382 7.89932 84.7867 8.65218V8.93021Z" fill="#DB4880"/>
</svg>
